<?xml version="1.0" encoding="iso-8859-1"?>
<!-- Generator: Adobe Illustrator 13.0.0, SVG Export Plug-In . SVG Version: 6.00 Build 14948)  -->
<!DOCTYPE svg PUBLIC "-//W3C//DTD SVG 1.1//EN" "http://www.w3.org/Graphics/SVG/1.1/DTD/svg11.dtd">
<svg version="1.1" id="Layer_1" xmlns="http://www.w3.org/2000/svg" xmlns:xlink="http://www.w3.org/1999/xlink" x="0px" y="0px"
	 width="100px" height="100px" viewBox="0 0 100 100" enable-background="new 0 0 100 100" xml:space="preserve">
<g>
	<g>
		<path fill="#32814A" d="M50.493,35.763c1.916,0,3.711,0.356,5.385,1.073c1.676,0.717,3.153,1.712,4.43,2.986l-3.311,3.268
			c-1.783-1.806-3.951-2.712-6.504-2.712c-2.527,0-4.708,0.907-6.544,2.716c-1.783,1.814-2.672,3.985-2.672,6.517
			s0.892,4.716,2.677,6.555c1.836,1.785,4.022,2.677,6.553,2.677c1.385,0,2.671-0.273,3.856-0.823
			c1.185-0.547,2.215-1.316,3.095-2.31v-3.816h-6.942v-4.564h11.559v9.9c-0.637,0.932-1.378,1.785-2.213,2.559
			c-0.839,0.77-1.75,1.43-2.733,1.975c-0.983,0.547-2.035,0.966-3.152,1.258s-2.273,0.438-3.469,0.438
			c-3.833,0-7.092-1.357-9.777-4.069c-2.712-2.687-4.07-5.946-4.07-9.778c0-3.805,1.353-7.064,4.06-9.779
			C43.405,37.119,46.662,35.763,50.493,35.763z"/>
	</g>
	<g>
		<g>
			<path fill="#32814A" d="M27.036,49.812c0-12.43,10.077-22.504,22.507-22.504c4.817,0,9.272,1.53,12.932,4.103l14.189-11.787
				c-8.456-3.945-17.218-5.825-25.575-6.417v-0.041c-0.071,0.005-0.143,0.015-0.209,0.021c-0.069-0.005-0.139-0.016-0.211-0.021
				v0.041c-10.81,0.77-22.303,3.647-32.925,10.419v44.959l11.346-9.426C27.784,56.312,27.036,53.151,27.036,49.812z"/>
			<path fill="#423B53" d="M69.182,38.842c1.82,3.247,2.866,6.984,2.866,10.97c0,12.43-10.075,22.506-22.505,22.506
				c-5.475,0-10.484-1.955-14.387-5.202l-9.693,8.053l25.206,17.87v0.294l0.211-0.147l0.209,0.147v-0.294l32.925-23.346v-43.18
				L69.182,38.842z"/>
		</g>
	</g>
</g>
</svg>
